<svg width="40" height="34" viewBox="0 0 40 34" fill="none" xmlns="http://www.w3.org/2000/svg">
<path fill-rule="evenodd" clip-rule="evenodd" d="M6.40224 1.32926e-06H33.5978C34.4088 -2.63056e-05 35.1084 -5.02538e-05 35.6847 0.0472465C36.2929 0.0971662 36.8978 0.207382 37.48 0.505336C38.3484 0.94984 39.0545 1.65911 39.497 2.5315C39.7936 3.11627 39.9033 3.72397 39.953 4.33496C40.0001 4.91383 40 5.61664 40 6.43131V27.5687C40 28.3834 40.0001 29.0862 39.953 29.665C39.9033 30.276 39.7936 30.8837 39.497 31.4685C39.0545 32.3409 38.3484 33.0502 37.48 33.4947C36.8978 33.7926 36.2929 33.9028 35.6847 33.9528C35.1084 34.0001 34.4088 34 33.5978 34H6.40221C5.59123 34 4.8916 34.0001 4.31534 33.9528C3.70712 33.9028 3.10217 33.7926 2.52005 33.4947C1.65161 33.0502 0.945542 32.3409 0.50305 31.4685C0.206443 30.8837 0.0967265 30.276 0.0470327 29.665C-5.00292e-05 29.0862 -2.61866e-05 28.3833 1.32325e-06 27.5687V6.43134C-2.61866e-05 5.61666 -5.00292e-05 4.91384 0.0470327 4.33496C0.0967265 3.72397 0.206443 3.11627 0.50305 2.5315C0.945542 1.65911 1.65161 0.94984 2.52005 0.505336C3.10217 0.207382 3.70712 0.0971662 4.31534 0.0472465C4.89161 -5.02538e-05 5.59124 -2.63056e-05 6.40224 1.32926e-06ZM4.5659 3.12789C4.14796 3.16219 3.99301 3.22042 3.91694 3.25936C3.62746 3.40752 3.39211 3.64395 3.24461 3.93474C3.20585 4.01116 3.14788 4.16681 3.11374 4.58666C3.07812 5.02454 3.07693 5.59987 3.07693 6.49091V27.5091C3.07693 28.4001 3.07812 28.9755 3.11374 29.4133C3.14788 29.8332 3.20585 29.9888 3.24461 30.0653C3.39211 30.3561 3.62746 30.5925 3.91694 30.7406C3.99301 30.7796 4.14796 30.8378 4.5659 30.8721C5.00181 30.9079 5.57454 30.9091 6.46154 30.9091H33.5385C34.4255 30.9091 34.9982 30.9079 35.4341 30.8721C35.852 30.8378 36.007 30.7796 36.0831 30.7406C36.3725 30.5925 36.6079 30.3561 36.7554 30.0653C36.7942 29.9888 36.8521 29.8332 36.8863 29.4133C36.9219 28.9755 36.9231 28.4001 36.9231 27.5091V6.49091C36.9231 5.59987 36.9219 5.02454 36.8863 4.58666C36.8521 4.16681 36.7942 4.01116 36.7554 3.93474C36.6079 3.64395 36.3725 3.40752 36.0831 3.25936C36.007 3.22042 35.852 3.16219 35.4341 3.12789C34.9982 3.09211 34.4255 3.09091 33.5385 3.09091H6.46154C5.57454 3.09091 5.00181 3.09211 4.5659 3.12789Z" fill="white"/>
<path fill-rule="evenodd" clip-rule="evenodd" d="M6.5345 6.70959C7.09401 6.06724 8.06595 6.00215 8.70539 6.5642L20 16.4919L31.2946 6.5642C31.934 6.00215 32.906 6.06724 33.4655 6.70959C34.025 7.35193 33.9602 8.32829 33.3208 8.89035L20 20.599L6.67923 8.89035C6.03978 8.32829 5.97499 7.35193 6.5345 6.70959Z" fill="white"/>
</svg>